<svg width="200" height="60" viewBox="0 0 200 60" fill="none" xmlns="http://www.w3.org/2000/svg">
  <!-- Background circle -->
  <circle cx="30" cy="30" r="25" fill="#3B82F6" stroke="#1E40AF" stroke-width="2"/>
  
  <!-- Link icon -->
  <path d="M20 30C20 25.5817 23.5817 22 28 22H32C36.4183 22 40 25.5817 40 30C40 34.4183 36.4183 38 32 38H28C23.5817 38 20 34.4183 20 30Z" 
        fill="white" stroke="white" stroke-width="1"/>
  <path d="M20 30H18C18 26.6863 20.6863 24 24 24H26" stroke="#3B82F6" stroke-width="2" stroke-linecap="round"/>
  <path d="M40 30H42C42 33.3137 39.3137 36 36 36H34" stroke="#3B82F6" stroke-width="2" stroke-linecap="round"/>
  
  <!-- URL text -->
  <text x="70" y="25" font-family="Arial, sans-serif" font-size="18" font-weight="bold" fill="#1F2937">URL</text>
  <text x="70" y="45" font-family="Arial, sans-serif" font-size="18" font-weight="bold" fill="#3B82F6">Shortener</text>
  
  <!-- Arrow indicating shortening -->
  <path d="M120 30L140 30M135 25L140 30L135 35" stroke="#10B981" stroke-width="2" stroke-linecap="round" stroke-linejoin="round"/>
  
  <!-- Short URL representation -->
  <rect x="150" y="20" width="40" height="20" rx="4" fill="#F3F4F6" stroke="#D1D5DB" stroke-width="1"/>
  <text x="170" y="33" font-family="Arial, sans-serif" font-size="10" font-weight="bold" fill="#374151" text-anchor="middle">abc123</text>
</svg> 